<svg xmlns="http://www.w3.org/2000/svg" viewBox="0 0 15 15"><defs><style>.cls-1{fill:#b39c72}</style></defs><title>dribble</title><g id="Слой_2" data-name="Слой 2"><path class="cls-1" d="M7.5 15A7.5 7.5 0 1 1 15 7.5 7.51 7.51 0 0 1 7.5 15zm6-6.53a8.93 8.93 0 0 0-3.78-.26 26.17 26.17 0 0 1 1.18 4.33 6.08 6.08 0 0 0 2.59-4.07zM9.87 13.1a25.3 25.3 0 0 0-1.3-4.6 8.32 8.32 0 0 0-4.8 3.8 6.06 6.06 0 0 0 6.1.8zM3 11.57a9.63 9.63 0 0 1 4.93-4l.24-.07c-.15-.35-.32-.69-.49-1a22.37 22.37 0 0 1-6.24.86v.19A6 6 0 0 0 3 11.57zm-1.44-5.3a22.68 22.68 0 0 0 5.61-.74A38.45 38.45 0 0 0 4.92 2a6.09 6.09 0 0 0-3.36 4.27zm4.52-4.66a32.34 32.34 0 0 1 2.26 3.55A6.86 6.86 0 0 0 11.52 3a6.07 6.07 0 0 0-5.44-1.39zm6.12 2.06a8.08 8.08 0 0 1-3.39 2.39c.14.29.28.58.4.88l.13.31a14.17 14.17 0 0 1 4.23.2 6 6 0 0 0-1.37-3.78z" id="Слой_1-2" data-name="Слой 1"/></g></svg>