<svg xmlns="http://www.w3.org/2000/svg" viewBox="0 0 8 16"><defs><style>.cls-1{fill:#0a0606}</style></defs><title>fb</title><g id="Слой_2" data-name="Слой 2"><path class="cls-1" d="M7.7 0H5.78C3.62 0 2.23 1.54 2.23 3.94v1.81H.3a.31.31 0 0 0-.3.33v2.63A.31.31 0 0 0 .3 9h1.93v6.64a.31.31 0 0 0 .3.33H5a.31.31 0 0 0 .3-.33V9h2.31a.31.31 0 0 0 .3-.33V6.08a.34.34 0 0 0-.09-.23.29.29 0 0 0-.21-.1H5.35V4.21c0-.74.16-1.12 1.05-1.12h1.3a.31.31 0 0 0 .3-.32V.33A.31.31 0 0 0 7.7 0z" id="Слой_1-2" data-name="Слой 1"/></g></svg>