<svg xmlns="http://www.w3.org/2000/svg" viewBox="0 0 15 15"><defs><style>.cls-1{fill:#0a0606}</style></defs><title>instagram</title><g id="Слой_2" data-name="Слой 2"><path class="cls-1" d="M10.95 0h-6.9A4.06 4.06 0 0 0 0 4.05v6.89A4.06 4.06 0 0 0 4.05 15h6.89A4.06 4.06 0 0 0 15 10.95v-6.9A4.06 4.06 0 0 0 10.95 0zm2.84 10.95a2.84 2.84 0 0 1-2.84 2.84h-6.9a2.84 2.84 0 0 1-2.84-2.84v-6.9a2.84 2.84 0 0 1 2.84-2.84h6.89a2.84 2.84 0 0 1 2.84 2.84zM9.91 5.09a3.36 3.36 0 1 0-2.39 5.74 3.4 3.4 0 0 0 .5 0 3.36 3.36 0 0 0 1.89-5.74zM7.85 9.6a2.15 2.15 0 1 1-.63-4.26h.64a2.15 2.15 0 0 1 0 4.26zm3.45-6.5a.61.61 0 1 0 .43.18.61.61 0 0 0-.44-.18z" id="Слой_1-2" data-name="Слой 1"/></g></svg>