<svg xmlns="http://www.w3.org/2000/svg" viewBox="0 0 98.3 58.85"><defs><style>.cls-1{fill:#0a0606;fill-rule:evenodd}</style></defs><title>Rezart_Logo</title><g id="Слой_2" data-name="Слой 2"><path class="cls-1" d="M97.36 53L66.49.12a.33.33 0 0 0-.51 0C65.71.4 37.6 48.67 37.6 48.67l-6.73-11.28.07-.29S43 33.47 43 20.33 29.88 3.42 27 3.42H0l4.54 8.2h20.55s10.46-.78 10.46 8.93-8 9.89-9.36 9.89H17.7l15.44 25.92s1.43 2.49 3.73 2.49 3.22-1.2 4.17-2.56S66.2 14.18 66.2 14.18l18.65 31.2-19-11 7.1 12.3L92.54 58s3.11 1.27 5-.51-.18-4.49-.18-4.49zM8.19 34.83L.29 21.21V54s0 3.22 4 3.22 4-3.37 4-3.37z" id="Слой_1-2" data-name="Слой 1"/></g></svg>