<svg xmlns="http://www.w3.org/2000/svg" viewBox="0 0 24 24"><defs><style>.cls-1{fill:#0a0606}</style></defs><title>smile2</title><g id="Слой_2" data-name="Слой 2"><path class="cls-1" d="M17.25 12H6.75a.75.75 0 0 0-.75.75 6 6 0 1 0 12 0 .75.75 0 0 0-.75-.75zM12 17.25a4.5 4.5 0 0 1-4.44-3.75h8.88A4.5 4.5 0 0 1 12 17.25zM12 0a12 12 0 1 0 12 12A12 12 0 0 0 12 0zm0 22.5A10.5 10.5 0 1 1 22.5 12 10.5 10.5 0 0 1 12 22.5zM8.25 9.75a1.5 1.5 0 1 0-1.5-1.5 1.5 1.5 0 0 0 1.5 1.5zm7.5 0a1.5 1.5 0 1 0-1.5-1.5 1.5 1.5 0 0 0 1.5 1.5z" id="Слой_1-2" data-name="Слой 1"/></g></svg>