<svg xmlns="http://www.w3.org/2000/svg" viewBox="0 0 24 24"><defs><style>.cls-1{fill:#0a0606}</style></defs><title>smile9</title><g id="Слой_2" data-name="Слой 2"><path class="cls-1" d="M12 0a12 12 0 1 0 12 12A12 12 0 0 0 12 0zm0 22.5A10.5 10.5 0 1 1 22.5 12 10.5 10.5 0 0 1 12 22.5zM8.25 8.25a1.5 1.5 0 0 1 1.5 1.5h1.5a3 3 0 1 0-6 0h1.5a1.5 1.5 0 0 1 1.5-1.5zm7.5-1.5a3 3 0 0 0-3 3h1.5a1.5 1.5 0 1 1 3 0h1.5a3 3 0 0 0-3-3zM12 17.25a4.5 4.5 0 0 1-4.5-4.5H6a6 6 0 0 0 12 0h-1.5a4.5 4.5 0 0 1-4.5 4.5z" id="Слой_1-2" data-name="Слой 1"/></g></svg>