<svg xmlns="http://www.w3.org/2000/svg" viewBox="0 0 24 24"><defs><style>.cls-1{fill:#0a0606}</style></defs><title>smile1</title><g id="Слой_2" data-name="Слой 2"><path class="cls-1" d="M12 0a12 12 0 1 0 12 12A12 12 0 0 0 12 0zm0 22.5A10.5 10.5 0 1 1 22.5 12 10.5 10.5 0 0 1 12 22.5zm7.5-15.75h-15a.75.75 0 0 0-.75.75v2.25A2.25 2.25 0 0 0 6 12h3a2.25 2.25 0 0 0 2.25-2.25v-1.5h1.5v1.5A2.25 2.25 0 0 0 15 12h3a2.25 2.25 0 0 0 2.25-2.25V7.5a.75.75 0 0 0-.75-.75zM12 18a4.5 4.5 0 0 1-4.5-4.5H6a6 6 0 1 0 12 0h-1.5A4.5 4.5 0 0 1 12 18z" id="Слой_1-2" data-name="Слой 1"/></g></svg>