<svg xmlns="http://www.w3.org/2000/svg" viewBox="0 0 24 24"><defs><style>.cls-1{fill:#0a0606}</style></defs><title>smile10</title><g id="Слой_2" data-name="Слой 2"><path class="cls-1" d="M12 0a12 12 0 1 0 12 12A12 12 0 0 0 12 0zm0 22.5A10.5 10.5 0 1 1 22.5 12 10.5 10.5 0 0 1 12 22.5zM8.25 6.75a3 3 0 0 0-3 3h1.5a1.5 1.5 0 1 1 3 0h1.5a3 3 0 0 0-3-3zm7.5 0a3 3 0 0 0-3 3h1.5a1.5 1.5 0 1 1 3 0h1.5a3 3 0 0 0-3-3zM10.5 16.5V18a5.25 5.25 0 0 0 5.25-5.25h-1.5a3.75 3.75 0 0 1-3.75 3.75z" id="Слой_1-2" data-name="Слой 1"/></g></svg>