<svg xmlns="http://www.w3.org/2000/svg" viewBox="0 0 22.01 14"><defs><style>.cls-1{fill:#0a0606;}</style></defs><title>behance</title><g id="Слой_2" data-name="Слой 2"><g id="Слой_1-2" data-name="Слой 1"><path class="cls-1" d="M19.87,2H14.36V.58h5.51V2ZM10.69,7.72a3.77,3.77,0,0,1,.53,2.05A4.15,4.15,0,0,1,10.61,12a3.85,3.85,0,0,1-1,1.1,3.7,3.7,0,0,1-1.55.7A9.35,9.35,0,0,1,6.17,14H0V0H6.61a4.16,4.16,0,0,1,3.55,1.49,3.62,3.62,0,0,1,.63,2.14,3.16,3.16,0,0,1-.63,2.06,3.23,3.23,0,0,1-1,.8A3.05,3.05,0,0,1,10.69,7.72ZM3.16,5.52h2.9A2.7,2.7,0,0,0,7.5,5.17a1.33,1.33,0,0,0,.56-1.23,1.26,1.26,0,0,0-.74-1.29,5.07,5.07,0,0,0-1.62-.22H3.16ZM8.34,9.57a1.51,1.51,0,0,0-.87-1.5A3.37,3.37,0,0,0,6.1,7.84H3.16v3.73H6.05a3.15,3.15,0,0,0,1.39-.25A1.77,1.77,0,0,0,8.34,9.57ZM21.92,7.3a13.45,13.45,0,0,1,.08,2H14.86a2.41,2.41,0,0,0,1,2.12,2.54,2.54,0,0,0,1.41.38,2.13,2.13,0,0,0,1.42-.46,2.18,2.18,0,0,0,.53-.69h2.62a3.28,3.28,0,0,1-.95,1.81,4.71,4.71,0,0,1-3.69,1.46,5.28,5.28,0,0,1-3.46-1.23,4.93,4.93,0,0,1-1.5-4,5.5,5.5,0,0,1,1.35-4,4.67,4.67,0,0,1,3.51-1.39,5.49,5.49,0,0,1,2.31.47,4,4,0,0,1,1.69,1.49A5,5,0,0,1,21.92,7.3Zm-2.58.26a2.1,2.1,0,0,0-2.21-2.13A2,2,0,0,0,15.61,6a2.73,2.73,0,0,0-.68,1.55Z"/></g></g></svg>