<svg xmlns="http://www.w3.org/2000/svg" viewBox="0 0 15 15"><defs><style>.cls-1{fill:#b39c72;}</style></defs><title>dribble</title><g id="Слой_2" data-name="Слой 2"><g id="Слой_1-2" data-name="Слой 1"><path class="cls-1" d="M7.5,15A7.5,7.5,0,1,1,15,7.5,7.51,7.51,0,0,1,7.5,15Zm6-6.53a8.93,8.93,0,0,0-3.78-.26,26.17,26.17,0,0,1,1.18,4.33A6.08,6.08,0,0,0,13.49,8.47ZM9.87,13.1a25.3,25.3,0,0,0-1.3-4.6h0A8.32,8.32,0,0,0,3.77,12.3a6.06,6.06,0,0,0,6.1.8ZM3,11.57a9.63,9.63,0,0,1,4.93-4l.24-.07c-.15-.35-.32-.69-.49-1a22.37,22.37,0,0,1-6.24.86c0,.06,0,.12,0,.19A6,6,0,0,0,3,11.57ZM1.56,6.27a22.68,22.68,0,0,0,5.61-.74A38.45,38.45,0,0,0,4.92,2,6.09,6.09,0,0,0,1.56,6.27ZM6.08,1.61A32.34,32.34,0,0,1,8.34,5.16,6.86,6.86,0,0,0,11.52,3,6.07,6.07,0,0,0,6.08,1.61ZM12.2,3.67A8.08,8.08,0,0,1,8.81,6.06c.14.29.28.58.4.88l.13.31a14.17,14.17,0,0,1,4.23.2A6,6,0,0,0,12.2,3.67Z"/></g></g></svg>