<svg xmlns="http://www.w3.org/2000/svg" viewBox="0 0 15 15"><defs><style>.cls-1{fill:#b39c72;}</style></defs><title>instagram</title><g id="Слой_2" data-name="Слой 2"><g id="Слой_1-2" data-name="Слой 1"><path class="cls-1" d="M10.95,0H4.05A4.06,4.06,0,0,0,0,4.05v6.89A4.06,4.06,0,0,0,4.05,15h6.89A4.06,4.06,0,0,0,15,10.95V4.05A4.06,4.06,0,0,0,10.95,0Zm2.84,10.95a2.84,2.84,0,0,1-2.84,2.84H4.05a2.84,2.84,0,0,1-2.84-2.84V4.05A2.84,2.84,0,0,1,4.05,1.21h6.89a2.84,2.84,0,0,1,2.84,2.84ZM9.91,5.09a3.36,3.36,0,1,0-2.39,5.74,3.4,3.4,0,0,0,.5,0A3.36,3.36,0,0,0,9.91,5.09ZM7.85,9.6a2.15,2.15,0,1,1-.63-4.26l.32,0,.32,0a2.15,2.15,0,0,1,0,4.26Zm3.45-6.5a.61.61,0,1,0,.43.18A.61.61,0,0,0,11.29,3.1Z"/></g></g></svg>