<svg xmlns="http://www.w3.org/2000/svg" viewBox="0 0 98.3 58.85"><defs><style>.cls-1{fill:#0a0606;fill-rule:evenodd;}</style></defs><title>Rezart_Logo</title><g id="Слой_2" data-name="Слой 2"><g id="Слой_1-2" data-name="Слой 1"><path class="cls-1" d="M97.36,53,66.49.12a.33.33,0,0,0-.51,0C65.71.4,37.6,48.67,37.6,48.67L30.87,37.39l.07-.29S43,33.47,43,20.33,29.88,3.42,27,3.42H0l4.54,8.2H25.09s10.46-.78,10.46,8.93-8,9.89-9.36,9.89H17.7L33.14,56.36s1.43,2.49,3.73,2.49,3.22-1.2,4.17-2.56S66.2,14.18,66.2,14.18L84.85,45.38l-19-11,7.1,12.3L92.54,58s3.11,1.27,5-.51S97.36,53,97.36,53ZM8.19,34.83.29,21.21V54s0,3.22,4,3.22,4-3.37,4-3.37Z"/></g></g></svg>