<svg xmlns="http://www.w3.org/2000/svg" viewBox="0 0 24 24"><defs><style>.cls-1{fill:#0a0606;}</style></defs><title>smile3</title><g id="Слой_2" data-name="Слой 2"><g id="Слой_1-2" data-name="Слой 1"><path class="cls-1" d="M12,0A12,12,0,1,0,24,12,12,12,0,0,0,12,0Zm0,22.5A10.5,10.5,0,1,1,22.5,12,10.5,10.5,0,0,1,12,22.5ZM8.25,9.75a1.5,1.5,0,1,0-1.5-1.5A1.5,1.5,0,0,0,8.25,9.75Zm7.5,0a1.5,1.5,0,1,0-1.5-1.5A1.5,1.5,0,0,0,15.75,9.75ZM12,17.25A5.25,5.25,0,0,1,6.75,12H5.25a6.75,6.75,0,1,0,13.5,0h-1.5A5.25,5.25,0,0,1,12,17.25Z"/></g></g></svg>