<svg xmlns="http://www.w3.org/2000/svg" viewBox="0 0 24 24"><defs><style>.cls-1{fill:#0a0606;}</style></defs><title>smile8</title><g id="Слой_2" data-name="Слой 2"><g id="Слой_1-2" data-name="Слой 1"><path class="cls-1" d="M12,0A12,12,0,1,0,24,12,12,12,0,0,0,12,0Zm0,22.5A10.5,10.5,0,1,1,22.5,12,10.5,10.5,0,0,1,12,22.5ZM15.75,9a1.5,1.5,0,0,1-1.5-1.5h-1.5a3,3,0,1,0,6,0h-1.5A1.5,1.5,0,0,1,15.75,9Zm-6-1.5a1.5,1.5,0,1,1-3,0H5.25a3,3,0,1,0,6,0Zm.75,9V18a5.25,5.25,0,0,0,5.25-5.25h-1.5A3.75,3.75,0,0,1,10.5,16.5Z"/></g></g></svg>