<svg xmlns="http://www.w3.org/2000/svg" viewBox="0 0 24 24"><defs><style>.cls-1{fill:#0a0606;}</style></defs><title>smile2</title><g id="Слой_2" data-name="Слой 2"><g id="Слой_1-2" data-name="Слой 1"><path class="cls-1" d="M17.25,12H6.75a.75.75,0,0,0-.75.75,6,6,0,1,0,12,0A.75.75,0,0,0,17.25,12ZM12,17.25A4.5,4.5,0,0,1,7.56,13.5h8.88A4.5,4.5,0,0,1,12,17.25ZM12,0A12,12,0,1,0,24,12,12,12,0,0,0,12,0Zm0,22.5A10.5,10.5,0,1,1,22.5,12,10.5,10.5,0,0,1,12,22.5ZM8.25,9.75a1.5,1.5,0,1,0-1.5-1.5A1.5,1.5,0,0,0,8.25,9.75Zm7.5,0a1.5,1.5,0,1,0-1.5-1.5A1.5,1.5,0,0,0,15.75,9.75Z"/></g></g></svg>