<svg xmlns="http://www.w3.org/2000/svg" viewBox="0 0 24 24"><defs><style>.cls-1{fill:#0a0606;}</style></defs><title>smile5</title><g id="Слой_2" data-name="Слой 2"><g id="Слой_1-2" data-name="Слой 1"><path class="cls-1" d="M12,0A12,12,0,1,0,24,12,12,12,0,0,0,12,0Zm0,22.5A10.5,10.5,0,1,1,22.5,12,10.5,10.5,0,0,1,12,22.5ZM19.5,6.75H4.5a.75.75,0,0,0-.75.75V9.75A2.25,2.25,0,0,0,6,12H9a2.25,2.25,0,0,0,2.25-2.25V8.25h1.5v1.5A2.25,2.25,0,0,0,15,12h3a2.25,2.25,0,0,0,2.25-2.25V7.5A.75.75,0,0,0,19.5,6.75Zm-9,10.5v1.5a5.25,5.25,0,0,0,5.25-5.25h-1.5A3.75,3.75,0,0,1,10.5,17.25Z"/></g></g></svg>