<svg xmlns="http://www.w3.org/2000/svg" viewBox="0 0 24 24"><defs><style>.cls-1{fill:#0a0606;}</style></defs><title>smile6</title><g id="Слой_2" data-name="Слой 2"><g id="Слой_1-2" data-name="Слой 1"><path class="cls-1" d="M12,0A12,12,0,1,0,24,12,12,12,0,0,0,12,0Zm0,22.5A10.5,10.5,0,1,1,22.5,12,10.5,10.5,0,0,1,12,22.5ZM8.25,8.25a1.5,1.5,0,0,1,1.5,1.5h1.5a3,3,0,1,0-6,0h1.5A1.5,1.5,0,0,1,8.25,8.25Zm7.5-1.5a3,3,0,0,0-3,3h1.5a1.5,1.5,0,1,1,3,0h1.5A3,3,0,0,0,15.75,6.75ZM17.25,12H6.75a.75.75,0,0,0-.75.75,6,6,0,0,0,12,0A.75.75,0,0,0,17.25,12ZM12,17.25A4.5,4.5,0,0,1,7.56,13.5h8.88A4.5,4.5,0,0,1,12,17.25Z"/></g></g></svg>