<svg xmlns="http://www.w3.org/2000/svg" viewBox="0 0 18 13.97"><defs><style>.cls-1{fill:#0a0606;}</style></defs><title>twitter</title><g id="Слой_2" data-name="Слой 2"><g id="Слой_1-2" data-name="Слой 1"><path class="cls-1" d="M18,1.65a7.59,7.59,0,0,1-2.12.56,3.57,3.57,0,0,0,1.62-2,7.59,7.59,0,0,1-2.35.86A3.78,3.78,0,0,0,12.46,0,3.61,3.61,0,0,0,8.77,3.53a3.41,3.41,0,0,0,.1.8A10.66,10.66,0,0,1,1.25.65a3.39,3.39,0,0,0-.5,1.77A3.48,3.48,0,0,0,2.4,5.35,3.8,3.8,0,0,1,.72,4.91V5a3.58,3.58,0,0,0,3,3.46,3.86,3.86,0,0,1-1,.12A3.91,3.91,0,0,1,2,8.48a3.68,3.68,0,0,0,3.45,2.45A7.63,7.63,0,0,1,.88,12.44,7.39,7.39,0,0,1,0,12.38,10.8,10.8,0,0,0,5.66,14a10.19,10.19,0,0,0,10.51-10c0-.15,0-.3,0-.46A7.3,7.3,0,0,0,18,1.65Z"/></g></g></svg>